<svg width="111" height="40" viewBox="0 0 111 40" fill="none" xmlns="http://www.w3.org/2000/svg">
<path d="M42.425 13.0822C42.425 12.5564 42.8414 12.1401 43.3445 12.1401C43.8476 12.1401 44.2865 12.5564 44.2865 13.0822V19.1043H51.2934V13.0822C51.2934 12.5564 51.7097 12.1401 52.2128 12.1401C52.7159 12.1401 53.1549 12.5564 53.1549 13.0822V26.8771C53.1549 27.3815 52.7385 27.8192 52.2128 27.8192C51.6871 27.8192 51.2934 27.3815 51.2934 26.8771V20.8337H44.2865V26.8771C44.2865 27.3815 43.8702 27.8192 43.3445 27.8192C42.8187 27.8192 42.425 27.3815 42.425 26.8771V13.0822Z" fill="#2F3E52"/>
<path d="M56.0212 22.06C56.0212 18.8188 58.5179 16.258 61.8018 16.258C63.4004 16.258 64.7362 16.8705 65.5902 17.6591C65.7876 17.8339 65.9184 18.0754 65.9184 18.3383C65.9184 18.5571 65.853 18.7546 65.6342 18.9948L61.7364 23.6585C61.5616 23.856 61.3641 23.9428 61.1239 23.9428C60.6422 23.9428 60.2913 23.6145 60.2913 23.1542C60.2913 22.9567 60.3353 22.7605 60.4888 22.6071L63.9048 18.5785C63.335 18.0968 62.525 17.878 61.8031 17.878C59.5693 17.878 57.7959 19.7168 57.7959 22.06C57.7959 24.4031 59.548 26.2419 61.8031 26.2419C63.0508 26.2419 64.0368 25.6948 64.716 24.9276C64.9563 24.7088 65.1537 24.5339 65.4606 24.5339C65.9637 24.5339 66.336 24.8848 66.336 25.3666C66.336 25.5414 66.2266 25.7829 66.0731 25.9577C65.1537 27.0532 63.6432 27.8632 61.8031 27.8632C58.5405 27.8632 56.0225 25.3012 56.0225 22.0612L56.0212 22.06Z" fill="#2F3E52"/>
<path d="M69.1596 20.9858C69.1596 18.161 70.9557 16.2567 73.6699 16.2567C74.1076 16.2567 74.4799 16.6076 74.4799 17.0667C74.4799 17.5258 74.1076 17.8767 73.6699 17.8767C72.0499 17.8767 70.9104 18.9496 70.9104 20.9858V26.9199C70.9104 27.4242 70.5167 27.8179 70.035 27.8179C69.5533 27.8179 69.1596 27.4242 69.1596 26.9199V20.9858Z" fill="#2F3E52"/>
<path d="M85.6034 26.1099C84.5745 27.2054 83.1508 27.8619 81.5082 27.8619C78.2896 27.8619 75.837 25.2999 75.837 22.06C75.837 18.82 78.2896 16.258 81.5082 16.258C83.1508 16.258 84.5733 16.9372 85.6034 18.01V13.018C85.6034 12.5363 85.997 12.1427 86.4788 12.1427C86.9605 12.1427 87.3541 12.5363 87.3541 13.018V26.9224C87.3541 27.4267 86.9819 27.8204 86.4788 27.8204C85.9757 27.8204 85.6034 27.4267 85.6034 26.9224V26.1099ZM85.6034 22.2348V21.8839C85.5166 19.6074 83.7859 17.8767 81.6188 17.8767C79.4517 17.8767 77.6117 19.6941 77.6117 22.0587C77.6117 24.4233 79.3851 26.2407 81.6188 26.2407C83.8526 26.2407 85.5166 24.5113 85.6034 22.2335V22.2348Z" fill="#2F3E52"/>
<path d="M90.2444 22.06C90.2444 18.8188 92.7411 16.258 96.025 16.258C97.6236 16.258 98.9593 16.8705 99.8133 17.6591C100.011 17.8339 100.142 18.0754 100.142 18.3383C100.142 18.5571 100.076 18.7546 99.8574 18.9948L95.9596 23.6585C95.7848 23.856 95.5873 23.9428 95.3471 23.9428C94.8654 23.9428 94.5145 23.6145 94.5145 23.1542C94.5145 22.9567 94.5585 22.7605 94.7119 22.6071L98.128 18.5785C97.5582 18.0968 96.7482 17.878 96.0263 17.878C93.7925 17.878 92.0191 19.7168 92.0191 22.06C92.0191 24.4031 93.7712 26.2419 96.0263 26.2419C97.274 26.2419 98.26 25.6948 98.938 24.9276C99.1794 24.7088 99.3756 24.5339 99.6825 24.5339C100.187 24.5339 100.558 24.8848 100.558 25.3666C100.558 25.5414 100.449 25.7829 100.295 25.9577C99.3757 27.0532 97.8638 27.8632 96.025 27.8632C92.7624 27.8632 90.2444 25.3012 90.2444 22.0612V22.06Z" fill="#2F3E52"/>
<path d="M103.163 13.7601C103.163 13.1476 103.644 12.6646 104.258 12.6646C104.872 12.6646 105.354 13.1463 105.354 13.7601C105.354 14.3739 104.851 14.8556 104.258 14.8556C103.666 14.8556 103.163 14.3512 103.163 13.7601ZM103.382 17.1761C103.382 16.6944 103.754 16.3008 104.257 16.3008C104.76 16.3008 105.132 16.6944 105.132 17.1761V26.9199C105.132 27.4242 104.739 27.8179 104.257 27.8179C103.775 27.8179 103.382 27.4242 103.382 26.9199V17.1761Z" fill="#2F3E52"/>
<path d="M24.9299 22.1217H14.3875C13.9943 22.1217 13.6756 22.4404 13.6756 22.8336V24.3919C13.6756 24.7851 13.9943 25.1038 14.3875 25.1038H24.9299C25.3231 25.1038 25.6418 24.7851 25.6418 24.3919V22.8336C25.6418 22.4404 25.3231 22.1217 24.9299 22.1217Z" fill="#2F3E52"/>
<path d="M24.9299 14.8985H14.3875C13.9943 14.8985 13.6756 15.2172 13.6756 15.6103V17.1687C13.6756 17.5618 13.9943 17.8806 14.3875 17.8806H24.9299C25.3231 17.8806 25.6418 17.5618 25.6418 17.1687V15.6103C25.6418 15.2172 25.3231 14.8985 24.9299 14.8985Z" fill="#2F3E52"/>
<path d="M10.6696 31.9761L8.67861 31.9861C8.12269 31.9861 7.67242 31.5359 7.67242 30.98V9.02102C7.67242 8.4651 8.12269 8.01482 8.67861 8.01482L10.6696 8.02614C10.7149 8.02614 10.7589 8.02363 10.8029 8.01985C10.8205 8.0186 10.8369 8.01608 10.8545 8.01357C10.8759 8.01105 10.896 8.00728 10.9161 8.00476C11.6255 7.88779 12.1663 7.27276 12.1663 6.53069C12.1663 5.78862 11.6167 5.16478 10.8998 5.0541C10.8369 5.04152 10.7728 5.03523 10.7074 5.03523H6.1996C5.36572 5.03523 4.69031 5.71064 4.69031 6.54452V33.4615C4.69031 34.2954 5.36572 34.9708 6.1996 34.9708H10.6696C11.6519 34.9708 12.4128 34.0249 12.0921 32.9949C11.9009 32.3811 11.3123 31.9773 10.6696 31.9773V31.9761Z" fill="#2F3E52"/>
<path d="M28.6478 8.02614L30.6388 8.01608C31.1947 8.01608 31.645 8.46635 31.645 9.02228V30.98C31.645 31.5359 31.1947 31.9861 30.6388 31.9861L28.6478 31.9748C28.6025 31.9748 28.5585 31.9773 28.5145 31.9811C28.4969 31.9824 28.4805 31.9849 28.4629 31.9874C28.4415 31.9899 28.4214 31.9937 28.4013 31.9962C27.6919 32.1132 27.1511 32.7282 27.1511 33.4703C27.1511 34.2123 27.7007 34.8362 28.4176 34.9469C28.4805 34.9594 28.5447 34.9657 28.6101 34.9657H33.1178C33.9517 34.9657 34.6271 34.2903 34.6271 33.4564V6.54201C34.6271 5.70812 33.9517 5.03271 33.1178 5.03271H28.6478C27.6655 5.03271 26.9046 5.97854 27.2253 7.00863C27.4165 7.62241 28.0051 8.02614 28.6478 8.02614Z" fill="#2F3E52"/>
</svg>
